`                            __     __   __            __  __ 
                  .-----..--|  |.--|  | |  |--..---.-.|  ||  |
                  |  _  ||  _  ||  _  | |  _  ||  _  ||  ||  |
                  |_____||_____||_____| |_____||___._||__||__|
                                  -links.com   `                      

American Gangster is a 2007 crime film directed by Ridley Scott and starring Denzel Washington and Russell Crowe. Washington portrays Frank Lucas, a real-life gangster from Harlem who smuggled heroin into the United States on American service planes returning from the Vietnam War. Crowe portrays Richie Roberts, a detective attempting to bring down Lucas' drug empire.Filming was done on location in New York City. American Gangster was released in the United States and Canada on November 2, 2007. The film was also nominated for two Academy Awards, including a notable Best Supporting Actress nomination for Ruby Dee who appears on screen for less than 10 minutes.

                                    +-+-+-+-+
                                    |c|a|s|t|
                                    +-+-+-+-+
                                         
                  Actor                              Role

                  Denzel Washington ...............  Frank Lucas 
                  Russell Crowe .................... Det. Richard "Richie" Roberts 
                  John Ortiz ....................... Det. Javier Rivera 
                  Lymari Nadal ..................... Eva Kendo Lucas 
                  Chiwetel Ejiofor ................. Huey Lucas 
                  Josh Brolin ...................... Det. Trupo 
                  Ted Levine ....................... Capt. Lou Toback 
                  RZA .............................. Moses Jones 
                  Malcom Goodwin ................... Jimmy Zee 
                  Ruby Dee ......................... Mama Lucas 



General
Complete name                    : American Gangster 
Format                           : AVI
Format/Info                      : Audio Video Interleave
File size                        : 1.47 GiB
Duration                         : 2h 48mn
Overall bit rate                 : 1 246 Kbps

Video
Format                           : MPEG-4 Visual
Format profile                   : Streaming Video@L1
Format settings, BVOP            : Yes
Format settings, QPel            : No
Format settings, GMC             : No warppoints
Format settings, Matrix          : Default
Muxing mode                      : Packed bitstream
Codec ID                         : XVID
Codec ID/Hint                    : XviD
Duration                         : 2h 48mn
Bit rate                         : 1 042 Kbps
Width                            : 1 024 pixels
Height                           : 582 pixels
Display aspect ratio             : 16/9
Frame rate                       : 29.970 fps
Resolution                       : 24 bits
Colorimetry                      : 4:2:0
Scan type                        : Progressive
Bits/(Pixel*Frame)               : 0.058
Stream size                      : 1.23 GiB (84%)
Writing library                  : XviD 1.1.0 (UTC 2005-11-22)

Audio
Format                           : MPEG Audio
Format version                   : Version 1
Format profile                   : Layer 3
Codec ID                         : 55
Codec ID/Hint                    : MP3
Duration                         : 2h 48mn
Bit rate mode                    : Constant
Bit rate                         : 192 Kbps
Channel(s)                       : 2 channels
Sampling rate                    : 44.1 KHz
Resolution                       : 16 bits
Video delay                      : 26ms
Stream size                      : 232 MiB (15%)
Alignment                        : Split accross interleaves
Interleave, duration             : 33 ms (1.00 video frame)
Title                            : Audio Stream
Writing library                  : LAME3.92


For more oddball torrents  http://thepiratebay.org/user/oddball-links `                                                                                                            Please seed after downloading `                                                                                            :::===  :::===== :::===== :::====       :::= === :::====  :::====
        :::     :::      :::      :::  ===      :::===== :::  === :::====
         =====  ======   ======   ===  ===      ======== ===  ===   ===  
            === ===      ===      ===  ===      === ==== ===  ===   ===  
        ======  ======== ======== =======       ===  ===  ======    ===  
                                                                         
                  :::=====  :::====  :::===== :::===== :::==== 
                  :::       :::  === :::      :::      :::  ===
                  === ===== =======  ======   ======   ===  ===
                  ===   === === ===  ===      ===      ===  ===
                   =======  ===  === ======== ======== =======